<svg id="Layer_1" data-name="Layer 1" xmlns="http://www.w3.org/2000/svg" viewBox="0 0 246.87 247.74"><defs><style>.cls-1{fill:#fff;}</style></defs><title>download133</title><path class="cls-1" d="M430.41,521.16H183.54V273.43H430.41ZM367.63,501l4.46-6.53c-7.71,4-7.74,4.08-15.31-.82a93.27,93.27,0,0,0-35.62-13.89c-1.5-.25-3-.74-4.72-1.2,1.19-2.63,2-6.48,3.16-6.57,3.11-.26,1.77-1.74,1.63-3-.33-3-.69-6-1-9l.82-.15,5.15,7.61,1-.65-9.43-15.48.78-.44,6,4.31c-.31-2-.19-3-.62-3.65-2-3.24-4.28-6.35-6.37-9.57q-6.13-9.44-12.16-18.94c-2.56-4-4.88-8.19-7.67-12-2.94-4-6.33-4.19-10.11-.94a20.9,20.9,0,0,1-1.95,1.27c-4.38-17.57-15.45-26.48-33.11-26.34a5.53,5.53,0,0,1-.29-1.29,25.19,25.19,0,0,1,.49-2.73,92.5,92.5,0,0,0,1.64-39.34c-1.32-7.66-1.05-7.71,5.84-13.52l-8.05,1.11c-1.31-6.72-2.81-13.16-1.2-19.81,1.85-7.63,7.44-12.53,15.86-13.38,6.91-.7,12.09,2.14,14.87,8.76.33.8.6,1.62.9,2.43l1.77-1.39a37.62,37.62,0,0,0-3-5.57,38.75,38.75,0,0,0-4.57-4.38c3.33-1,6.5-1.33,8.91-2.86,1.4-.89,2.73-4.17,2.14-5.54a16.68,16.68,0,0,0-11.54-10,5.76,5.76,0,0,0-4.78,1.72c-.87,1-.39,3.19-.51,4.85,3.06-5.44,6.17-6.14,10.91-2.18a16.33,16.33,0,0,1,2.22,2.26c3.39,4.19,2,8.23-3.33,8.79a37.54,37.54,0,0,1-9.86-.28c-14.39-2.33-27.35,10.19-25.12,24.53.69,4.44,1.76,8.82,2.43,13.26a10.18,10.18,0,0,1-.35,4.93c-1.74,4.56-4,8.94-5.68,13.51A73.57,73.57,0,0,0,237.49,378c.06,1.32,1.47,2.59,2.25,3.88.58-1.45,1.17-2.9,1.71-4.36.08-.21-.11-.51-.12-.77-.17-5.5-.92-11.06-.36-16.48a45,45,0,0,1,8.45-21.5c.46.4.76.52.81.72a82.63,82.63,0,0,1,0,44.26,3.53,3.53,0,0,1-1.86,2.26c-6.71,1.84-12.13,5.6-17.11,11.83,0-2.13-.08-3.14,0-4.13.92-9.6,2-19.18,2.69-28.8.14-2-.74-4.82-2.16-5.81s-4.08-.16-6.18.08a3.73,3.73,0,0,0-2,1.22c-1.06,1.12-3,3.06-2.75,3.47,1,1.6,2.73,3.75,4.28,3.84,3.66.2,5,2.14,5.37,5.15,1.29,10.08,1.1,20.33-2.24,29.8a143,143,0,0,0-6.82,28.45c-2.41,17.68-6.18,34.92-15.88,50.3-.15.24,0,.69.05,1.05,23.79-2.71,37.59.26,60.66,6.79,5.7,1.61,11.64,2.4,17.48,3.47,6.07,1.11,12.28,1.64,18.19,3.28a95.66,95.66,0,0,1,15.76,6.43c2.22,1.07,5.05,2.83,3.91,6-1,2.8-1.61,5.59,1.25,6.87,1.36.61,4.19-.75,5.65-2s3.57-4,3.21-5.59c-.43-1.88-2.92-3.92-5-4.69-7.66-2.9-15.5-5.31-23.28-7.9L297,493a43,43,0,0,0,16.78-11c.89-1,3.23-1.17,4.71-.85a134.29,134.29,0,0,1,15.7,4.18,81.6,81.6,0,0,1,24,13.58,7.85,7.85,0,0,1-1.11.73,6.69,6.69,0,0,1-1.53.42c-12.42,1.17-24.31-.16-34.92-7.48a11.52,11.52,0,0,0-3.36-2c-.95-.24-2.11.4-3.18.64a16.73,16.73,0,0,0,1.33,2.89c.33.47,1.13.63,1.74.89,10,4.42,20.5,7.19,31.5,7.19,8.92,0,17.64.17,24.33,7.37a10.44,10.44,0,0,0,2.35,1.46c14.1,8.52,29.47,2.26,34-13.65a24.14,24.14,0,0,1,4.29-8.42,7.27,7.27,0,0,1,5.7-2.2c3,.42,5.27,6.63,4.63,10.9-.58,3.89-3.4,3.73-6.49,3.95,1.47,1.07,3.36,2.33,4.49,1.84,1.54-.66,3.63-2.78,3.49-4.06a42.19,42.19,0,0,0-2.94-12.08c-1.83-4.25-5.6-4.64-9-1.36a44.3,44.3,0,0,0-4.26,5.57c-4.8-9.06-4.8-9.06-7.87-9.6a8.84,8.84,0,0,0,1.12,2.1c4.37,4.36,5.14,9.4,2.78,14.95-2.62,6.15-7.08,10.07-13.89,11C381.85,511.35,375.07,505.52,367.63,501Zm-76.47,11.4c-.07-6.67-4.28-10-10.06-12.12-9.32-3.38-18.62-6.83-27.95-10.2a12.12,12.12,0,0,0-2.67-.34c.37,1.09.89,1.41,1.45,1.53A29.3,29.3,0,0,1,269,502.09C274.66,509.16,281.22,514.28,291.16,512.4Zm-76-71.57a15.11,15.11,0,0,0,1-2.9q.91-15,1.72-30.05c.28-5.32,0-10.41-5.67-13.28-.65-.33-.95-1.35-1.6-2.35-.22,1.29-.13,2.33-.56,3.05-4.51,7.55-2.53,14.65,1.12,21.83,3.42,6.73,5.27,13.83,3.41,21.46C214.41,439,214.73,439.47,215.11,440.84Z" transform="translate(-183.54 -273.43)"/><path d="M367.63,501c7.44,4.52,14.22,10.35,23.85,9,6.8-1,11.27-4.88,13.89-11,2.36-5.55,1.6-10.59-2.78-14.95a8.84,8.84,0,0,1-1.12-2.1c3.07.54,3.07.54,7.87,9.6a44.3,44.3,0,0,1,4.26-5.57c3.41-3.28,7.17-2.88,9,1.36a42.19,42.19,0,0,1,2.94,12.08c.14,1.28-2,3.4-3.49,4.06-1.13.49-3-.77-4.49-1.84,3.08-.22,5.91-.06,6.49-3.95.63-4.26-1.61-10.48-4.63-10.9a7.27,7.27,0,0,0-5.7,2.2,24.14,24.14,0,0,0-4.29,8.42c-4.52,15.91-19.89,22.16-34,13.65a10.44,10.44,0,0,1-2.35-1.46c-6.7-7.2-15.41-7.37-24.33-7.37-11,0-21.46-2.77-31.5-7.19-.6-.27-1.41-.42-1.74-.89a16.73,16.73,0,0,1-1.33-2.89c1.07-.25,2.23-.88,3.18-.64a11.52,11.52,0,0,1,3.36,2c10.61,7.31,22.5,8.65,34.92,7.48a6.69,6.69,0,0,0,1.53-.42,7.85,7.85,0,0,0,1.11-.73,81.6,81.6,0,0,0-24-13.58,134.29,134.29,0,0,0-15.7-4.18c-1.48-.33-3.82-.11-4.71.85A43,43,0,0,1,297,493l6.47,2.16c7.78,2.59,15.62,5,23.28,7.9,2,.77,4.53,2.81,5,4.69.36,1.58-1.61,4.19-3.21,5.59s-4.29,2.64-5.65,2c-2.86-1.29-2.25-4.07-1.25-6.87,1.14-3.2-1.69-5-3.91-6A95.66,95.66,0,0,0,302,496c-5.91-1.65-12.13-2.17-18.19-3.28-5.85-1.07-11.78-1.86-17.48-3.47-23.07-6.53-36.87-9.51-60.66-6.79,0-.36-.21-.81-.05-1.05,9.7-15.38,13.47-32.62,15.88-50.3a143,143,0,0,1,6.82-28.45c3.34-9.47,3.53-19.72,2.24-29.8-.39-3-1.7-4.94-5.37-5.15-1.55-.09-3.25-2.24-4.28-3.84-.26-.41,1.7-2.35,2.75-3.47a3.73,3.73,0,0,1,2-1.22c2.1-.23,4.79-1,6.18-.08s2.3,3.85,2.16,5.81c-.67,9.62-1.77,19.2-2.69,28.8-.09,1,0,2,0,4.13,5-6.22,10.4-10,17.11-11.83a3.53,3.53,0,0,0,1.86-2.26,82.63,82.63,0,0,0,0-44.26c-.06-.2-.36-.33-.81-.72a45,45,0,0,0-8.45,21.5c-.56,5.42.19,11,.36,16.48,0,.26.2.56.12.77-.54,1.46-1.13,2.91-1.71,4.36-.78-1.29-2.19-2.55-2.25-3.88a73.57,73.57,0,0,1,4.75-29.18c1.7-4.57,3.95-8.95,5.68-13.51a10.18,10.18,0,0,0,.35-4.93c-.67-4.44-1.74-8.82-2.43-13.26-2.23-14.34,10.72-26.86,25.12-24.53a37.54,37.54,0,0,0,9.86.28c5.3-.56,6.71-4.6,3.33-8.79a16.33,16.33,0,0,0-2.22-2.26c-4.74-4-7.85-3.26-10.91,2.18.12-1.66-.36-3.82.51-4.85a5.76,5.76,0,0,1,4.78-1.72,16.68,16.68,0,0,1,11.54,10c.59,1.37-.73,4.64-2.14,5.54-2.41,1.53-5.58,1.88-8.91,2.86a38.75,38.75,0,0,1,4.57,4.38,37.62,37.62,0,0,1,3,5.57l-1.77,1.39c-.3-.81-.57-1.63-.9-2.43-2.78-6.62-8-9.45-14.87-8.76-8.43.85-14,5.75-15.86,13.38-1.61,6.64-.12,13.09,1.2,19.81l8.05-1.11c-6.9,5.81-7.16,5.86-5.84,13.52a92.5,92.5,0,0,1-1.64,39.34,25.19,25.19,0,0,0-.49,2.73,5.53,5.53,0,0,0,.29,1.29c17.65-.14,28.73,8.77,33.11,26.34a20.9,20.9,0,0,0,1.95-1.27c3.79-3.24,7.18-3.1,10.11.94,2.79,3.84,5.11,8,7.67,12q6.05,9.49,12.16,18.94c2.09,3.21,4.32,6.33,6.37,9.57.42.67.31,1.68.62,3.65l-6-4.31-.78.44,9.43,15.48-1,.65L321,459.76l-.82.15c.35,3,.71,6,1,9,.14,1.3,1.48,2.79-1.63,3-1.14.09-2,3.95-3.16,6.57,1.77.46,3.22.95,4.72,1.2a93.27,93.27,0,0,1,35.62,13.89c7.57,4.9,7.61,4.84,15.31.82Zm-131.2-45.57-.29-1.92a24.7,24.7,0,0,0,3.5-.86c1.78-.71,3.87-1.23,5.14-2.51a103.57,103.57,0,0,0,9.64-11c3.7-5,6.94-10.31,10.38-15.49l-1-1.11-19,4.21c3.12-5.28,7.92-5.29,12-6.39-1.25-5.35-5-7.53-9.8-5.52-13.41,5.56-20.74,16.28-24.56,29.79-3.45,12.21-4.28,25.38-14.42,36a38.52,38.52,0,0,0,4.15-.89,31.67,31.67,0,0,1,16.38-1.57c7.3,1.23,14.6,2.48,21.93,3.54a46.11,46.11,0,0,0,32.29-6.83c8.17-5.23,8.64-9.85,2.25-16.5-.1-.1.06-.44.16-1.09,3.65,2.23,7.24,4.36,8.06,8.79,1.22,6.6-4.44,9-7.36,11.49,6.58,0,14-.47,21.3.19,4,.36,5.75-1,7.31-4.18,7.34-14.86-2.45-31.7-20-34-7.79-1-6.77-2.56-8.62,6.23a144.15,144.15,0,0,1-5.69,19.3c-1.3,3.6-4.4,5.79-8.39,6.28a23.11,23.11,0,0,1,4.11-6.39c5.93-5.95,8.44-13.27,9.27-21.39.42-4.08-.13-4.76-4.12-3.94-8.19,1.69-15.68,5-21.64,11-5.79,5.85-11.91,11.57-12.85,20.65l-1.21-.41,1.42-11.49-6.09,7.34-.93-.74,8.18-11.25Zm4.06-42.19c.25-.12.62-.26,1-.45,9.64-5.25,13-4.1,17.18,5.89,1.21,2.9,6.88,3.72,8.92,1.1,3.18-4.08,6.18-8.23,12.27-5.79,2.2-14.3-12.29-27.75-26.89-24.67a4.61,4.61,0,0,0-2.79,2.28C246.83,398.76,243.69,406,240.49,413.24ZM248,390.92c-11,2.47-22.77,22.24-20.7,34.14C233.44,421.62,245.58,401.74,248,390.92Zm21.48,94.19c16.22,4.87,32.22,4.78,39.86-5.54C295.27,478.61,282.12,479.71,269.51,485.11Zm4.23-47.27.62.81,3.65-.79c1.41-.31,2.82-.69,4.24-.94,3.47-.6,5.39-5.55,3.2-8.35-1.83-2.35-4.58-1.92-6,.72a66.2,66.2,0,0,1-3.73,5.55C275,435.85,274.4,436.85,273.74,437.85Zm24.81-1.08.08-1.4-4.06.56,1.61-2.93-7.77-3.75-1.13.87c.49,2,.53,5.45,1.55,5.77C291.87,436.84,295.29,436.56,298.55,436.76Zm-14-10.18,1.14-.68a26.73,26.73,0,0,0-.14-5.71c-.14-.63-1.94-.89-3-1.32-.36,1.77-1.12,3.59-.92,5.29C281.74,425.07,283.51,425.78,284.53,426.58Zm3.5-12.83-1.47.34c-.48,7.66.82,12.83,3.15,13.61Zm-4.76,2.62,1.78-.28-1.37-7-1,.2Z" transform="translate(-183.54 -273.43)"/><path d="M291.16,512.4c-9.93,1.87-16.5-3.24-22.15-10.32a29.3,29.3,0,0,0-17.08-10.81c-.57-.12-1.09-.44-1.45-1.53a12.12,12.12,0,0,1,2.67.34c9.33,3.37,18.63,6.82,27.95,10.2C286.87,502.38,291.09,505.73,291.16,512.4Z" transform="translate(-183.54 -273.43)"/><path d="M215.11,440.84c-.38-1.37-.7-1.85-.6-2.23,1.86-7.64,0-14.73-3.41-21.46-3.65-7.18-5.62-14.28-1.12-21.83.43-.73.34-1.77.56-3.05.65,1,1,2,1.6,2.35,5.64,2.86,6,8,5.67,13.28q-.79,15-1.72,30.05A15.11,15.11,0,0,1,215.11,440.84Z" transform="translate(-183.54 -273.43)"/><path class="cls-1" d="M236.43,455.43l11.5-.68L239.76,466l.93.74,6.09-7.34-1.42,11.49,1.21.41c.94-9.08,7.06-14.8,12.85-20.65,6-6,13.44-9.29,21.64-11,4-.82,4.54-.14,4.12,3.94-.83,8.12-3.34,15.44-9.27,21.39a23.11,23.11,0,0,0-4.11,6.39c4-.49,7.09-2.68,8.39-6.28a144.15,144.15,0,0,0,5.69-19.3c1.85-8.79.82-7.25,8.62-6.23,17.57,2.3,27.36,19.14,20,34-1.56,3.16-3.27,4.55-7.31,4.18-7.31-.66-14.73-.19-21.3-.19,2.92-2.48,8.58-4.89,7.36-11.49-.82-4.43-4.4-6.56-8.06-8.79-.1.65-.26,1-.16,1.09,6.4,6.65,5.93,11.27-2.25,16.5a46.11,46.11,0,0,1-32.29,6.83c-7.33-1.05-14.63-2.31-21.93-3.54a31.67,31.67,0,0,0-16.38,1.57,38.52,38.52,0,0,1-4.15.89c10.14-10.64,11-23.82,14.42-36,3.82-13.5,11.15-24.23,24.56-29.79,4.83-2,8.55.17,9.8,5.52-4.12,1.1-8.92,1.11-12,6.39l19-4.21,1,1.11c-3.44,5.18-6.68,10.5-10.38,15.49a103.57,103.57,0,0,1-9.64,11c-1.27,1.28-3.36,1.8-5.14,2.51a24.7,24.7,0,0,1-3.5.86Z" transform="translate(-183.54 -273.43)"/><path class="cls-1" d="M240.49,413.24c3.2-7.23,6.33-14.48,9.65-21.63a4.61,4.61,0,0,1,2.79-2.28c14.6-3.09,29.09,10.37,26.89,24.67-6.08-2.44-9.08,1.71-12.27,5.79-2,2.62-7.71,1.8-8.92-1.1-4.16-10-7.54-11.14-17.18-5.89C241.11,413,240.74,413.12,240.49,413.24Z" transform="translate(-183.54 -273.43)"/><path class="cls-1" d="M248,390.92c-2.46,10.82-14.59,30.7-20.7,34.14C225.26,413.16,237.07,393.39,248,390.92Z" transform="translate(-183.54 -273.43)"/><path class="cls-1" d="M269.51,485.11c12.61-5.4,25.76-6.5,39.86-5.54C301.73,489.89,285.73,490,269.51,485.11Z" transform="translate(-183.54 -273.43)"/><path class="cls-1" d="M273.74,437.85c.66-1,1.31-2,2-3a66.2,66.2,0,0,0,3.73-5.55c1.42-2.64,4.17-3.07,6-.72,2.19,2.8.27,7.75-3.2,8.35-1.43.24-2.83.63-4.24.94l-3.65.79Z" transform="translate(-183.54 -273.43)"/><path class="cls-1" d="M298.55,436.76c-3.27-.2-6.68.08-9.72-.87-1-.32-1.06-3.76-1.55-5.77l1.13-.87,7.77,3.75-1.61,2.93,4.06-.56Z" transform="translate(-183.54 -273.43)"/><path class="cls-1" d="M284.53,426.58c-1-.8-2.79-1.51-2.9-2.42-.2-1.7.56-3.52.92-5.29,1,.43,2.84.69,3,1.32a26.73,26.73,0,0,1,.14,5.71Z" transform="translate(-183.54 -273.43)"/><path class="cls-1" d="M288,413.75l1.67,14c-2.33-.78-3.63-5.94-3.15-13.61Z" transform="translate(-183.54 -273.43)"/><path class="cls-1" d="M283.27,416.37l-.62-7,1-.2,1.37,7Z" transform="translate(-183.54 -273.43)"/></svg>